<svg width="22" height="22" viewBox="0 0 22 22" fill="none" xmlns="http://www.w3.org/2000/svg">
<path d="M16.1274 11.5729C16.1357 10.8714 16.3218 10.1834 16.6684 9.57334C17.015 8.96331 17.5108 8.45123 18.1093 8.08503C17.7289 7.5434 17.2281 7.0973 16.6463 6.78175C16.0645 6.4662 15.4175 6.28979 14.7561 6.26636C13.3279 6.12153 11.9694 7.10695 11.2453 7.10695C10.522 7.10695 9.40459 6.28745 8.22026 6.30945C7.44293 6.33133 6.68462 6.55482 6.01966 6.958C5.3547 7.36119 4.80592 7.93023 4.42709 8.60936C2.81101 11.4144 4.01459 15.5696 5.58851 17.8457C6.35851 18.9585 7.27793 20.2116 8.48334 20.1667C9.64568 20.1209 10.0838 19.415 11.4873 19.415C12.8898 19.415 13.2848 20.1667 14.5123 20.1438C15.7626 20.1209 16.5555 19.008 17.3191 17.8915C17.866 17.0882 18.2934 16.2098 18.5878 15.2836C17.8603 14.9729 17.2397 14.4561 16.8025 13.7969C16.3653 13.1377 16.1306 12.3649 16.1274 11.5739V11.5729Z" fill="black"/>
<path d="M13.9485 4.61996C14.8263 3.59447 15.2615 2.2626 15.1585 0.916626C13.8357 1.04476 12.6122 1.67455 11.7393 2.67663L11.721 2.71971C10.8431 3.7452 10.408 5.07707 10.511 6.42304C11.8337 6.29491 13.0572 5.66512 13.9301 4.66304L13.9485 4.61996Z" fill="black"/>
</svg>
