<svg width="19" height="19" viewBox="0 0 19 19" fill="none" xmlns="http://www.w3.org/2000/svg">
<path fill-rule="evenodd" clip-rule="evenodd" d="M14.71 5.125V3.66667H16.1683V5.125H17.6266V6.58333H16.1683V8.04167H14.71V6.58333H13.2516V5.125H14.71ZM5.91404 5.01225C5.9657 4.94043 6.02307 4.85251 6.09624 4.73396C6.13724 4.66753 6.28682 4.42009 6.31128 4.38009C6.91574 3.39132 7.35514 2.9375 8.14746 2.9375H11.7933V4.39583H8.14746C8.08422 4.39583 7.88533 4.60126 7.55552 5.14074C7.53435 5.17537 7.38254 5.4265 7.33726 5.49986C7.24761 5.64513 7.17311 5.75929 7.09791 5.86383C6.77106 6.31821 6.44438 6.58333 5.95996 6.58333H3.77246C3.36975 6.58333 3.04329 6.90979 3.04329 7.3125V13.875C3.04329 14.2777 3.36975 14.6042 3.77246 14.6042H15.4391C15.8418 14.6042 16.1683 14.2777 16.1683 13.875V9.5H17.6266V13.875C17.6266 15.0831 16.6472 16.0625 15.4391 16.0625H3.77246C2.56434 16.0625 1.58496 15.0831 1.58496 13.875V7.3125C1.58496 6.10438 2.56434 5.125 3.77246 5.125H5.82594C5.85021 5.09725 5.87997 5.05961 5.91404 5.01225ZM9.60579 13.875C7.59226 13.875 5.95996 12.2427 5.95996 10.2292C5.95996 8.21563 7.59226 6.58333 9.60579 6.58333C11.6193 6.58333 13.2516 8.21563 13.2516 10.2292C13.2516 12.2427 11.6193 13.875 9.60579 13.875ZM9.60579 12.4167C10.8139 12.4167 11.7933 11.4373 11.7933 10.2292C11.7933 9.02104 10.8139 8.04167 9.60579 8.04167C8.39767 8.04167 7.41829 9.02104 7.41829 10.2292C7.41829 11.4373 8.39767 12.4167 9.60579 12.4167Z" fill="#C04DB2"/>
</svg>
