<svg width="20" height="20" viewBox="0 0 20 20" fill="none" xmlns="http://www.w3.org/2000/svg">
<g clip-path="url(#clip0_580_7228)">
<path d="M18.5669 12.0581L16.6919 10.1831C16.6339 10.1251 16.565 10.079 16.4892 10.0476C16.4133 10.0162 16.3321 10 16.25 10C16.1679 10 16.0867 10.0162 16.0108 10.0476C15.935 10.079 15.8661 10.1251 15.8081 10.1831L10 15.9912V18.75H12.7588L18.5669 12.9419C18.6249 12.8839 18.671 12.815 18.7024 12.7392C18.7338 12.6634 18.75 12.5821 18.75 12.5C18.75 12.4179 18.7338 12.3367 18.7024 12.2609C18.671 12.185 18.6249 12.1162 18.5669 12.0581ZM12.2412 17.5H11.25V16.5088L14.375 13.3838L15.3662 14.375L12.2412 17.5ZM16.25 13.4912L15.2588 12.5L16.25 11.5088L17.2412 12.5L16.25 13.4912Z" fill="#222222"/>
<path d="M11.25 10H5V11.25H11.25V10Z" fill="#222222"/>
<path d="M12.5 6.25H5V7.5H12.5V6.25Z" fill="#222222"/>
<path d="M16.25 2.5C16.2496 2.1686 16.1178 1.85087 15.8835 1.61654C15.6491 1.3822 15.3314 1.25038 15 1.25H2.5C2.1686 1.25038 1.85088 1.3822 1.61654 1.61654C1.3822 1.85087 1.25038 2.1686 1.25 2.5V10.625C1.24865 11.8715 1.58677 13.0948 2.22808 14.1636C2.86939 15.2325 3.78966 16.1065 4.89013 16.6919L8.125 18.4167V17L5.4785 15.589C4.5781 15.11 3.82512 14.3949 3.30038 13.5203C2.77564 12.6458 2.49895 11.6449 2.5 10.625V2.5H15V8.125H16.25V2.5Z" fill="#222222"/>
</g>
<defs>
<clipPath id="clip0_580_7228">
<rect width="20" height="20" fill="white"/>
</clipPath>
</defs>
</svg>
