<svg width="20" height="20" viewBox="0 0 20 20" fill="none" xmlns="http://www.w3.org/2000/svg">
<path d="M8.58721 5.69391C8.6603 5.46906 8.66033 5.22684 8.58729 5.00197C8.51426 4.7771 8.37191 4.58112 8.18064 4.44213L8.1806 4.44209L7.25755 3.77145L6.96364 4.17594M8.58721 5.69391L8.11176 5.53937L8.58727 5.69376L8.58721 5.69391ZM8.58721 5.69391L8.23492 6.77895L8.23491 6.77899C8.22711 6.80301 8.22711 6.82888 8.23491 6.8529C8.24272 6.87692 8.25793 6.89784 8.27836 6.91269L7.98905 7.31091L8.27836 6.91269C8.29879 6.92753 8.32339 6.93553 8.34865 6.93553C8.3739 6.93553 8.39851 6.92753 8.41894 6.91269M8.41894 6.91269L8.41892 6.91271L8.7128 7.31723M8.41894 6.91269L8.7128 7.31723M8.41894 6.91269L9.34203 6.24209L9.63595 6.64657M8.7128 7.31723C8.60694 7.39412 8.47947 7.43553 8.34863 7.43553C8.2178 7.43552 8.09032 7.3941 7.98447 7.3172C7.87862 7.2403 7.79983 7.13187 7.7594 7.00744C7.71896 6.88301 7.71894 6.74897 7.75936 6.62454L8.1117 5.53935C8.15215 5.41491 8.15217 5.28087 8.11175 5.15642C8.07133 5.03198 7.99255 4.92352 7.8867 4.8466L6.96364 4.17594M8.7128 7.31723L9.63595 6.64657M6.96364 4.17594L7.25754 3.77144M6.96364 4.17594L7.25754 3.77144M7.25754 3.77144C7.23711 3.75659 7.22191 3.73566 7.2141 3.71165C7.2063 3.68763 7.2063 3.66175 7.21411 3.63773C7.22191 3.61372 7.23712 3.59278 7.25755 3.57794L6.97517 3.18925L7.25755 3.57794C7.27799 3.5631 7.30259 3.5551 7.32785 3.5551H7.32786L8.46866 3.5551C8.46869 3.5551 8.46871 3.5551 8.46874 3.5551C8.70517 3.55512 8.93554 3.48029 9.12684 3.34134C9.31816 3.20237 9.46057 3.0064 9.53366 2.78152L9.53367 2.78149L9.88629 1.69631L9.8863 1.69627C9.8941 1.67226 9.90931 1.65133 9.92974 1.63648C9.95016 1.62164 9.97477 1.61365 10 1.61365C10.0253 1.61365 10.0499 1.62164 10.0703 1.63648C10.0907 1.65133 10.1059 1.67226 10.1137 1.69627L10.1137 1.69633L10.4664 2.78152L10.4664 2.78156C10.5395 3.00638 10.6819 3.20231 10.8732 3.34126C11.0644 3.48022 11.2948 3.55507 11.5312 3.5551H11.5312H12.672L12.672 3.5551C12.6973 3.5551 12.7219 3.56309 12.7423 3.57794C12.7627 3.59278 12.7779 3.61372 12.7857 3.63773C12.7935 3.66175 12.7935 3.68763 12.7857 3.71165L13.2613 3.86614L12.7857 3.71165C12.7779 3.73566 12.7627 3.75659 12.7423 3.77143C12.7423 3.77144 12.7423 3.77144 12.7423 3.77145L11.8192 4.44209L11.8192 4.44214C11.6279 4.58113 11.4856 4.77711 11.4125 5.00197L11.8881 5.15642L11.4125 5.00197C11.3395 5.22684 11.3395 5.46905 11.4126 5.6939L11.4126 5.69392L11.7653 6.77899C11.7731 6.80301 11.7731 6.82888 11.7653 6.8529C11.7575 6.87692 11.7423 6.89785 11.7219 6.91269C11.7014 6.92753 11.6768 6.93553 11.6516 6.93553C11.6263 6.93553 11.6017 6.92754 11.5813 6.9127C11.5813 6.9127 11.5813 6.9127 11.5813 6.91269L10.6582 6.24209L7.25754 3.77144ZM9.63595 6.64657L9.34208 6.24205C9.53334 6.10308 9.76369 6.02823 10.0001 6.02823C10.2365 6.02823 10.4669 6.10308 10.6581 6.24205L10.3643 6.64657C10.2584 6.56966 10.1309 6.52823 10.0001 6.52823C9.86927 6.52823 9.7418 6.56966 9.63595 6.64657Z" stroke="#222222"/>
<mask id="path-2-inside-1_580_7207" fill="white">
<path d="M11.6996 13.7933C11.6337 13.7649 11.5776 13.7179 11.5381 13.658C11.4987 13.5981 11.4777 13.5279 11.4777 13.4562C11.4772 13.405 11.4873 13.3542 11.5073 13.307C11.5273 13.2598 11.5568 13.2172 11.5939 13.1819C11.6166 13.1603 11.6382 13.139 11.6545 13.1219C11.7694 13.0009 11.8708 12.8677 11.9568 12.7248C12.1832 12.3471 12.2954 11.9119 12.2799 11.4718C12.2644 11.0318 12.1219 10.6056 11.8696 10.2447C11.6173 9.88384 11.266 9.60369 10.858 9.43806C10.45 9.27243 10.0027 9.22841 9.57028 9.3113C9.12958 9.38847 8.7223 9.59645 8.40139 9.90821C8.08048 10.22 7.8608 10.6211 7.7709 11.0593C7.68782 11.4367 7.70196 11.829 7.81199 12.1994C7.92203 12.5699 8.12436 12.9063 8.4 13.1771C8.43739 13.2125 8.46733 13.2551 8.48806 13.3023C8.50878 13.3495 8.51987 13.4003 8.52068 13.4519V13.4538C8.52135 13.5261 8.50065 13.597 8.46118 13.6576C8.42171 13.7182 8.36522 13.7658 8.29881 13.7944C7.38978 14.1709 6.66488 14.8893 6.28006 15.7948C6.00953 16.415 5.87383 17.0856 5.88193 17.7621V18.2496C5.88193 18.3542 5.90253 18.4577 5.94255 18.5543C5.98256 18.6508 6.04121 18.7386 6.11515 18.8125C6.18908 18.8864 6.27686 18.9451 6.37345 18.985C6.47005 19.025 6.57358 19.0456 6.67812 19.0456H13.3222C13.5333 19.0455 13.7357 18.9617 13.8849 18.8124C14.0342 18.6632 14.118 18.4607 14.118 18.2497V17.7573C14.1261 17.081 13.9901 16.4107 13.7192 15.791C13.3337 14.8863 12.6085 14.1689 11.6996 13.7933Z"/>
</mask>
<path d="M11.6996 13.7933L11.3045 14.7119L11.3111 14.7147L11.3176 14.7174L11.6996 13.7933ZM11.4777 13.4562L12.4778 13.4565L12.4777 13.4471L11.4777 13.4562ZM11.5939 13.1819L12.2831 13.9064L12.2838 13.9057L11.5939 13.1819ZM11.6545 13.1219L10.9294 12.4332L10.9291 12.4335L11.6545 13.1219ZM11.9568 12.7248L12.8136 13.2405L12.8146 13.2388L11.9568 12.7248ZM9.57028 9.3113L9.74277 10.2963L9.75066 10.2949L9.75853 10.2934L9.57028 9.3113ZM7.7709 11.0593L8.74751 11.2743L8.74906 11.2673L8.75051 11.2603L7.7709 11.0593ZM8.4 13.1771L7.69915 13.8904L7.70548 13.8966L7.71192 13.9027L8.4 13.1771ZM8.52068 13.4519H9.52068V13.444L9.52056 13.4361L8.52068 13.4519ZM8.52068 13.4538H7.52064L7.52073 13.463L8.52068 13.4538ZM8.29881 13.7944L8.68151 14.7183L8.68805 14.7156L8.69456 14.7128L8.29881 13.7944ZM6.28006 15.7948L7.19669 16.1947L7.20041 16.1859L6.28006 15.7948ZM5.88193 17.7621H6.88201L6.88186 17.7501L5.88193 17.7621ZM5.88193 18.2496H6.88193H5.88193ZM6.67812 19.0456V18.0456H6.67781L6.67812 19.0456ZM13.3222 19.0456V20.0456H13.3223L13.3222 19.0456ZM13.8849 18.8124L14.592 19.5195L13.8849 18.8124ZM14.118 18.2497H13.118H14.118ZM14.118 17.7573L13.118 17.7453V17.7573H14.118ZM13.7192 15.791L12.7992 16.183L12.803 16.1916L13.7192 15.791ZM12.0947 12.8746C12.2084 12.9235 12.3053 13.0047 12.3734 13.1082L10.7029 14.2078C10.8498 14.4311 11.059 14.6063 11.3045 14.7119L12.0947 12.8746ZM12.3734 13.1082C12.4415 13.2116 12.4778 13.3327 12.4777 13.4565L10.4777 13.4559C10.4776 13.7232 10.5559 13.9846 10.7029 14.2078L12.3734 13.1082ZM12.4777 13.4471C12.4785 13.5329 12.4616 13.6179 12.4281 13.6969L10.5865 12.917C10.513 13.0904 10.476 13.277 10.4778 13.4653L12.4777 13.4471ZM12.4281 13.6969C12.3947 13.7759 12.3453 13.8472 12.2831 13.9064L10.9047 12.4573C10.7682 12.5871 10.6599 12.7436 10.5865 12.917L12.4281 13.6969ZM12.2838 13.9057C12.3106 13.8802 12.3464 13.8455 12.3799 13.8102L10.9291 12.4335C10.9307 12.4318 10.9293 12.4333 10.9238 12.4388C10.9188 12.4438 10.9121 12.4502 10.904 12.458L12.2838 13.9057ZM12.3796 13.8105C12.5445 13.6369 12.6901 13.4457 12.8136 13.2405L11.1001 12.209C11.0515 12.2897 10.9943 12.3649 10.9294 12.4332L12.3796 13.8105ZM12.8146 13.2388C13.1402 12.6955 13.3015 12.0696 13.2793 11.4367L11.2805 11.507C11.2892 11.7542 11.2262 11.9986 11.0991 12.2108L12.8146 13.2388ZM13.2793 11.4367C13.257 10.8038 13.0521 10.1908 12.6892 9.67172L11.0501 10.8177C11.1918 11.0204 11.2718 11.2598 11.2805 11.507L13.2793 11.4367ZM12.6892 9.67172C12.3263 9.15267 11.8209 8.74972 11.2341 8.51149L10.4818 10.3646C10.711 10.4577 10.9083 10.615 11.0501 10.8177L12.6892 9.67172ZM11.2341 8.51149C10.6473 8.27327 10.004 8.20995 9.38203 8.32918L9.75853 10.2934C10.0014 10.2469 10.2526 10.2716 10.4818 10.3646L11.2341 8.51149ZM9.39779 8.32629C8.75942 8.43808 8.16944 8.73935 7.70459 9.19094L9.09819 10.6255C9.27515 10.4536 9.49974 10.3389 9.74277 10.2963L9.39779 8.32629ZM7.70459 9.19094C7.23974 9.64253 6.92151 10.2235 6.7913 10.8584L8.75051 11.2603C8.80008 11.0186 8.92123 10.7974 9.09819 10.6255L7.70459 9.19094ZM6.79429 10.8443C6.67479 11.3871 6.69512 11.9514 6.85339 12.4842L8.77059 11.9147C8.70879 11.7066 8.70085 11.4863 8.74751 11.2743L6.79429 10.8443ZM6.85339 12.4842C7.01167 13.017 7.30269 13.5009 7.69915 13.8904L9.10084 12.4638C8.94603 12.3117 8.83239 12.1227 8.77059 11.9147L6.85339 12.4842ZM7.71192 13.9027C7.65271 13.8466 7.6053 13.7792 7.57248 13.7044L9.40364 12.9002C9.32937 12.7311 9.22208 12.5785 9.08807 12.4514L7.71192 13.9027ZM7.57248 13.7044C7.53966 13.6297 7.52209 13.5492 7.52081 13.4676L9.52056 13.4361C9.51766 13.2515 9.47791 13.0693 9.40364 12.9002L7.57248 13.7044ZM7.52068 13.4519V13.4538H9.52068V13.4519H7.52068ZM7.52073 13.463C7.51958 13.3384 7.55525 13.2162 7.62326 13.1118L9.2991 14.2034C9.44605 13.9778 9.52313 13.7138 9.52064 13.4445L7.52073 13.463ZM7.62326 13.1118C7.69128 13.0074 7.78861 12.9254 7.90306 12.876L8.69456 14.7128C8.94184 14.6062 9.15214 14.429 9.2991 14.2034L7.62326 13.1118ZM7.91611 12.8705C6.76498 13.3474 5.84702 14.257 5.35971 15.4037L7.20041 16.1859C7.48274 15.5215 8.01458 14.9945 8.68151 14.7183L7.91611 12.8705ZM5.36347 15.395C5.03631 16.145 4.8722 16.9559 4.88201 17.7741L6.88186 17.7501C6.87545 17.2152 6.98275 16.685 7.19665 16.1947L5.36347 15.395ZM4.88193 17.7621V18.2496H6.88193V17.7621H4.88193ZM4.88193 18.2496C4.88193 18.4855 4.92841 18.7191 5.0187 18.937L6.8664 18.1715C6.87665 18.1963 6.88193 18.2228 6.88193 18.2496H4.88193ZM5.0187 18.937C5.10899 19.1549 5.24132 19.353 5.40815 19.5197L6.82214 18.1053C6.8411 18.1242 6.85614 18.1467 6.8664 18.1715L5.0187 18.937ZM5.40815 19.5197C5.57498 19.6865 5.77303 19.8188 5.99099 19.909L6.75592 18.0611C6.78068 18.0713 6.80319 18.0863 6.82214 18.1053L5.40815 19.5197ZM5.99099 19.909C6.20895 19.9992 6.44254 20.0456 6.67844 20.0456L6.67781 18.0456C6.70461 18.0455 6.73115 18.0508 6.75592 18.0611L5.99099 19.909ZM6.67812 20.0456H13.3222V18.0456H6.67812V20.0456ZM13.3223 20.0456C13.7985 20.0455 14.2553 19.8563 14.592 19.5195L13.1778 18.1053C13.2161 18.0671 13.268 18.0456 13.3221 18.0456L13.3223 20.0456ZM14.592 19.5195C14.9288 19.1827 15.118 18.726 15.118 18.2497H13.118C13.118 18.1955 13.1395 18.1436 13.1778 18.1053L14.592 19.5195ZM15.118 18.2497V17.7573H13.118V18.2497H15.118ZM15.1179 17.7692C15.1277 16.951 14.9632 16.1402 14.6355 15.3904L12.803 16.1916C13.017 16.6813 13.1245 17.2109 13.1181 17.7453L15.1179 17.7692ZM14.6392 15.399C14.151 14.2532 13.2326 13.3448 12.0815 12.8691L11.3176 14.7174C11.9844 14.993 12.5164 15.5193 12.7993 16.183L14.6392 15.399Z" fill="#222222" mask="url(#path-2-inside-1_580_7207)"/>
<path d="M18.5656 14.8876L18.5656 14.8876C18.2315 14.1034 17.603 13.4816 16.8152 13.156L16.8084 13.1532L16.8085 13.1532C16.6529 13.0862 16.5203 12.975 16.4272 12.8335C16.3344 12.6926 16.2848 12.5278 16.2843 12.3591M18.5656 14.8876L16.5553 11.7208C16.4688 11.8032 16.4002 11.9025 16.3536 12.0126C16.3071 12.1222 16.2836 12.2401 16.2843 12.3591M18.5656 14.8876L18.5675 14.892C18.81 15.4466 18.9317 16.0466 18.9245 16.6519H18.9245V16.6579V17.1506C18.9245 17.1506 18.9245 17.1506 18.9245 17.1506C18.9244 17.2291 18.8933 17.3043 18.8378 17.3598C18.7823 17.4152 18.7071 17.4464 18.6286 17.4464H15.4569M18.5656 14.8876L15.4569 17.4464M16.2843 12.3591C16.2843 12.3598 16.2844 12.3606 16.2844 12.3613L16.7843 12.3569L16.2843 12.3569C16.2843 12.3576 16.2843 12.3584 16.2843 12.3591ZM15.4569 17.4464C15.4261 16.6876 15.2531 15.9403 14.9461 15.2437C14.6194 14.4862 14.1157 13.8228 13.4817 13.3066C13.5832 13.2514 13.6878 13.2018 13.795 13.1579L13.795 13.158L13.8032 13.1544C13.9601 13.0869 14.0936 12.9745 14.1868 12.8313C14.2795 12.689 14.3284 12.5225 14.3273 12.3527M15.4569 17.4464L14.3273 12.3527M14.3273 12.3527V12.3546H13.8273L14.0333 12.3526L14.3273 12.3498C14.3273 12.3507 14.3273 12.3517 14.3273 12.3526V12.3527ZM13.7947 12.203L14.2525 12.002C14.2058 11.8955 14.1385 11.7993 14.0547 11.7189C13.8407 11.5078 13.6836 11.246 13.598 10.9578C13.5121 10.6686 13.501 10.3623 13.5659 10.0676L13.566 10.0676L13.5674 10.0605C13.6371 9.72055 13.8075 9.40941 14.0565 9.16758C14.3054 8.92575 14.6213 8.76442 14.9632 8.70458L14.9632 8.70465L14.9711 8.70313C15.3088 8.63839 15.658 8.67276 15.9766 8.80208C16.2952 8.93141 16.5696 9.15018 16.7666 9.43198C16.9636 9.71378 17.0749 10.0466 17.0869 10.3902C17.099 10.7336 17.0115 11.0732 16.8349 11.368C16.7677 11.4796 16.6885 11.5835 16.5988 11.6779L16.5988 11.6779L16.5971 11.6797C16.5907 11.6865 16.5772 11.6999 16.5556 11.7205L13.7947 12.203Z" stroke="#222222"/>
<path d="M6.51921 13.3063C6.41701 13.2508 6.31172 13.2009 6.20377 13.1567L6.19523 13.1532L6.19526 13.1532C6.03964 13.0862 5.90707 12.975 5.81392 12.8335C5.72116 12.6926 5.67154 12.5277 5.67111 12.3591C5.67035 12.24 5.69392 12.1221 5.74037 12.0125C5.78695 11.9026 5.85555 11.8034 5.94193 11.721C5.96369 11.7001 5.97772 11.6862 5.98493 11.6786L5.98548 11.678C6.07524 11.5836 6.15443 11.4796 6.22166 11.368C6.39823 11.0732 6.48576 10.7336 6.47371 10.3902C6.46164 10.0466 6.35039 9.71377 6.15337 9.43197C5.95636 9.15017 5.682 8.93141 5.36341 8.80208L6.51921 13.3063ZM6.51921 13.3063C5.88379 13.8237 5.37922 14.489 5.05259 15.2486C4.74701 15.9439 4.5746 16.6894 4.54326 17.4464H1.3711H1.37109C1.33224 17.4464 1.29378 17.4388 1.25789 17.4239L1.06656 17.8859L1.25789 17.4239C1.222 17.409 1.18939 17.3873 1.16193 17.3598C1.13446 17.3323 1.11267 17.2997 1.0978 17.2638L0.635861 17.4552L1.0978 17.2638C1.08294 17.2279 1.07529 17.1895 1.07529 17.1506V17.1506V16.6629H1.07533L1.07526 16.6569C1.06802 16.0512 1.18954 15.4508 1.43177 14.8955L1.43179 14.8955L1.43365 14.8912C1.76724 14.1062 2.39561 13.4835 3.18358 13.1571L3.1836 13.1572L3.19 13.1544C3.3469 13.0869 3.48034 12.9744 3.57358 12.8313C3.66629 12.689 3.71515 12.5226 3.7141 12.3527V12.3546H3.2141L3.42245 12.3526L3.71408 12.3499C3.71409 12.3508 3.7141 12.3517 3.7141 12.3526L6.51921 13.3063ZM3.44144 11.7188C3.44005 11.7175 3.43865 11.7162 3.43724 11.7148L3.09342 12.0779L3.44386 11.7212C3.44306 11.7204 3.44225 11.7196 3.44144 11.7188Z" stroke="#222222"/>
</svg>
