<svg width="24" height="24" viewBox="0 0 24 24" fill="none" xmlns="http://www.w3.org/2000/svg">
<g clip-path="url(#clip0_580_4103)">
<path d="M12 24.0001C8.94368 23.9981 6.0033 22.8299 3.77884 20.7339C1.55438 18.638 0.213492 15.7723 0.0297726 12.7214C-0.153947 9.67064 0.833349 6.66469 2.79021 4.31695C4.74707 1.96921 7.52602 0.456615 10.56 0.0878034C12.4053 -0.140766 14.2785 0.0663091 16.0292 0.692419C16.1435 0.733331 16.2486 0.796345 16.3385 0.877864C16.4284 0.959383 16.5013 1.05781 16.5532 1.16753C16.605 1.27724 16.6348 1.3961 16.6407 1.51731C16.6466 1.63852 16.6286 1.75971 16.5877 1.87396C16.5468 1.98821 16.4838 2.09328 16.4023 2.18318C16.3207 2.27307 16.2223 2.34603 16.1126 2.39789C16.0029 2.44975 15.884 2.47949 15.7628 2.48541C15.6416 2.49134 15.5204 2.47333 15.4062 2.43242C13.1382 1.62546 10.6572 1.65054 8.40602 2.50318C6.1548 3.35581 4.27974 4.98055 3.11537 7.0875C1.951 9.19445 1.57308 11.6466 2.04903 14.0063C2.52497 16.3661 3.82383 18.48 5.71386 19.9709C7.2956 21.2111 9.20985 21.954 11.2141 22.1054C13.2184 22.2569 15.2226 21.81 16.9727 20.8215C18.7228 19.8331 20.1402 18.3474 21.0453 16.5527C21.9504 14.758 22.3025 12.7351 22.0569 10.7401C22.0424 10.6189 22.0519 10.496 22.0848 10.3784C22.1178 10.2609 22.1735 10.151 22.249 10.055C22.3244 9.95895 22.418 9.87875 22.5244 9.81892C22.6309 9.75909 22.748 9.72081 22.8692 9.70627C22.9905 9.69172 23.1134 9.70119 23.2309 9.73414C23.3485 9.76709 23.4584 9.82287 23.5544 9.8983C23.6504 9.97373 23.7306 10.0673 23.7904 10.1738C23.8503 10.2802 23.8885 10.3974 23.9031 10.5186C24.113 12.2061 23.9619 13.9189 23.4598 15.5436C22.9576 17.1683 22.1159 18.6677 20.9904 19.9424C19.8649 21.2172 18.4814 22.2382 16.9314 22.9377C15.3815 23.6373 13.7005 23.9994 12 24.0001Z" fill="#222222"/>
<path d="M12 20.2428C11.7552 20.2428 11.5204 20.1456 11.3473 19.9725C11.1742 19.7994 11.0769 19.5646 11.0769 19.3198V10.4582C11.0769 10.2134 11.1742 9.97863 11.3473 9.80552C11.5204 9.63241 11.7552 9.53516 12 9.53516C12.2448 9.53516 12.4796 9.63241 12.6527 9.80552C12.8258 9.97863 12.9231 10.2134 12.9231 10.4582V19.3198C12.9231 19.5646 12.8258 19.7994 12.6527 19.9725C12.4796 20.1456 12.2448 20.2428 12 20.2428Z" fill="#222222"/>
<path d="M12.0001 8.43676C12.6552 8.43676 13.1863 7.9057 13.1863 7.25061C13.1863 6.59551 12.6552 6.06445 12.0001 6.06445C11.345 6.06445 10.814 6.59551 10.814 7.25061C10.814 7.9057 11.345 8.43676 12.0001 8.43676Z" fill="#222222"/>
</g>
<defs>
<clipPath id="clip0_580_4103">
<rect width="24" height="24" fill="white"/>
</clipPath>
</defs>
</svg>
