<svg width="20" height="20" viewBox="0 0 20 20" fill="none" xmlns="http://www.w3.org/2000/svg">
<g clip-path="url(#clip0_1652_1003)">
<path d="M17.5 16.904C17.5 17.4456 17.2558 18.3623 15.625 18.3623H10.2083C9.05564 18.3687 7.90633 18.2369 6.785 17.9698C6.53 17.9156 6.26 17.8606 5.9625 17.8031M17.5 16.904L19.5 9.1948C19.5 9.47554 19.4253 9.75123 19.2836 9.99362C19.142 10.236 18.9384 10.4364 18.6938 10.5742L18.2636 10.8165L18.5005 11.2497C18.6099 11.4498 18.6671 11.6742 18.6667 11.9023V11.903C18.6666 12.1571 18.5962 12.4062 18.4633 12.6227C18.3303 12.8392 18.1401 13.0148 17.9135 13.1299L17.4729 13.3537L17.6916 13.7969C17.8517 14.1212 17.8773 14.4957 17.7629 14.8388C17.6485 15.182 17.4034 15.4661 17.0807 15.6296L16.639 15.8534L16.8585 16.2972C16.9517 16.4858 17.0001 16.6933 17 16.9037V16.904C17 17.1101 16.9523 17.3338 16.801 17.5034C16.6594 17.662 16.3472 17.8623 15.625 17.8623L10.2083 17.8623L10.2055 17.8623C9.09281 17.8685 7.98334 17.7413 6.90088 17.4834L6.90091 17.4833L6.88889 17.4807C6.65041 17.4301 6.39908 17.3787 6.125 17.3253M17.5 16.904C17.5002 16.6167 17.434 16.3332 17.3067 16.0756L17.5 16.904ZM5.9625 17.8031L6.04167 17.3941L6.04168 17.394L6.0575 17.3122C6.0765 17.3159 6.09363 17.3261 6.10595 17.341C6.11825 17.3559 6.12498 17.3746 6.125 17.394V17.3253M5.9625 17.8031C5.86748 17.7847 5.78182 17.7338 5.72024 17.6592C5.65865 17.5845 5.62498 17.4907 5.625 17.394L12.0838 7.31798C12.0183 7.22733 11.9752 7.12245 11.958 7.01193C11.9408 6.90141 11.9501 6.7884 11.985 6.68213L11.9895 6.66823L11.9949 6.65462C12.4191 5.57956 12.5595 4.41363 12.4029 3.26894C12.1789 2.49011 11.8498 2.03931 11.5359 1.79392C11.2238 1.54992 10.9003 1.48676 10.6287 1.52238C10.3524 1.57129 10.1029 1.71816 9.92602 1.93619C9.74751 2.15625 9.65518 2.43375 9.66628 2.71688L9.66667 2.72667V2.73647C9.66667 4.00264 9.17922 5.29035 8.50751 6.38691C7.84411 7.4699 6.97313 8.41226 6.125 9.0071V17.3253M5.9625 17.8031L6.04155 17.3942L6.04157 17.3941L6.04158 17.394L6.05738 17.3122C6.08008 17.3166 6.10262 17.321 6.125 17.3253M12.6575 7.61147H12.6565C12.5446 7.61123 12.4344 7.58451 12.3349 7.53351L12.5629 7.08854L12.3349 7.5335C12.2353 7.4825 12.1493 7.40864 12.0838 7.31799L12.6575 7.61147ZM12.6575 7.61147H17.9167C18.1246 7.61147 18.3305 7.65242 18.5226 7.73199C18.7147 7.81156 18.8892 7.92819 19.0363 8.07521C19.1833 8.22224 19.2999 8.39678 19.3795 8.58888C19.459 8.78097 19.5 8.98685 19.5 9.19476L12.6575 7.61147ZM6.089 9.03215L6.08904 9.03212L6.089 9.03215Z" stroke="#222222"/>
<path d="M1.7045 17.4905L2.05226 17.1427L1.70451 17.4905C1.86184 17.6478 2.06229 17.755 2.28052 17.7984L2.37807 17.308L2.28052 17.7984C2.49875 17.8418 2.72495 17.8195 2.93052 17.7344C3.13609 17.6492 3.31179 17.505 3.4354 17.32C3.55902 17.135 3.625 16.9175 3.625 16.695C3.625 16.3966 3.50647 16.1105 3.2955 15.8995C3.08452 15.6885 2.79837 15.57 2.5 15.57C2.2775 15.57 2.05999 15.636 1.87498 15.7596C1.68998 15.8832 1.54578 16.0589 1.46064 16.2645C1.37549 16.47 1.35321 16.6962 1.39662 16.9145C1.44002 17.1327 1.54717 17.3331 1.7045 17.4905ZM3.77737 8.75095C3.83988 8.81346 3.875 8.89825 3.875 8.98665V18.1533C3.875 18.2417 3.83988 18.3265 3.77737 18.389C3.71486 18.4515 3.63007 18.4867 3.54167 18.4867H0.833333C0.744929 18.4867 0.660144 18.4515 0.597631 18.389C0.535119 18.3265 0.5 18.2417 0.5 18.1533V8.98665C0.5 8.89825 0.535119 8.81346 0.597631 8.75095C0.660142 8.68844 0.744927 8.65332 0.833333 8.65332H3.54167C3.63007 8.65332 3.71486 8.68844 3.77737 8.75095Z" stroke="#222222"/>
</g>
<defs>
<clipPath id="clip0_1652_1003">
<rect width="20" height="20" fill="white"/>
</clipPath>
</defs>
</svg>
