<svg width="27" height="27" viewBox="0 0 27 27" fill="none" xmlns="http://www.w3.org/2000/svg">
<g clip-path="url(#clip0_580_6766)">
<path d="M24.6756 18.6668C24.8276 18.8202 24.9128 19.0274 24.9128 19.2434C24.9128 19.4593 24.8276 19.6665 24.6756 19.8199L22.248 22.2476C22.0926 22.396 21.8863 22.4793 21.6714 22.4802C21.564 22.4797 21.4577 22.4591 21.3578 22.4195C21.2106 22.3576 21.0849 22.2535 20.9967 22.1203C20.9085 21.9871 20.8617 21.8307 20.8622 21.671V20.0526C19.7181 20.0362 18.5938 19.7512 17.58 19.2206C16.5662 18.69 15.6913 17.9286 15.0258 16.9978L10.8078 11.1007C10.2843 10.3676 9.59393 9.7697 8.79363 9.35636C7.99332 8.94302 7.10612 8.72612 6.20538 8.72362H3.86878C3.65416 8.72362 3.44834 8.63836 3.29658 8.48661C3.14483 8.33485 3.05957 8.12903 3.05957 7.91441C3.05957 7.69979 3.14483 7.49397 3.29658 7.34221C3.44834 7.19046 3.65416 7.1052 3.86878 7.1052H6.20538C7.36495 7.10724 8.50737 7.38536 9.53812 7.91657C10.5689 8.44777 11.4583 9.21678 12.1328 10.16L16.3509 16.0571C16.8641 16.779 17.5397 17.3702 18.3234 17.783C19.107 18.1959 19.9766 18.419 20.8622 18.4341V16.8157C20.8617 16.656 20.9085 16.4996 20.9967 16.3664C21.0849 16.2332 21.2106 16.1291 21.3578 16.0672C21.5073 16.0089 21.6702 15.9941 21.8278 16.0245C21.9853 16.055 22.131 16.1294 22.248 16.2392L24.6756 18.6668ZM15.0966 11.4547C15.1834 11.5169 15.2817 11.5613 15.3858 11.5853C15.4899 11.6093 15.5977 11.6125 15.7031 11.5946C15.8084 11.5767 15.9091 11.5382 15.9995 11.4812C16.0898 11.4242 16.168 11.3499 16.2295 11.2625L16.3509 11.1007C16.8641 10.3788 17.5397 9.78761 18.3234 9.37472C19.107 8.96183 19.9766 8.73881 20.8622 8.72362V10.342C20.8617 10.5018 20.9085 10.6581 20.9967 10.7913C21.0849 10.9245 21.2106 11.0287 21.3578 11.0906C21.4577 11.1302 21.564 11.1508 21.6714 11.1513C21.8863 11.1503 22.0926 11.0671 22.248 10.9186L24.6756 8.49097C24.8276 8.33755 24.9128 8.13035 24.9128 7.91441C24.9128 7.69847 24.8276 7.49127 24.6756 7.33785L22.248 4.91022C22.131 4.80044 21.9853 4.72603 21.8278 4.6956C21.6702 4.66517 21.5073 4.67996 21.3578 4.73826C21.2106 4.80017 21.0849 4.90428 20.9967 5.03748C20.9085 5.17069 20.8617 5.32702 20.8622 5.48678V7.1052C19.7181 7.12156 18.5938 7.40653 17.58 7.93714C16.5662 8.46776 15.6913 9.22916 15.0258 10.16L14.9145 10.3218C14.8518 10.4081 14.8068 10.5058 14.782 10.6095C14.7572 10.7132 14.7531 10.8208 14.77 10.9261C14.7869 11.0314 14.8245 11.1323 14.8805 11.223C14.9366 11.3137 15.01 11.3925 15.0966 11.4547ZM12.062 15.7031C11.9752 15.6409 11.8769 15.5965 11.7728 15.5725C11.6687 15.5485 11.5609 15.5453 11.4556 15.5632C11.3502 15.581 11.2495 15.6196 11.1591 15.6766C11.0688 15.7336 10.9906 15.8079 10.9291 15.8952L10.8078 16.0571C10.2843 16.7901 9.59393 17.3881 8.79363 17.8014C7.99332 18.2148 7.10612 18.4316 6.20538 18.4341H3.86878C3.65416 18.4341 3.44834 18.5194 3.29658 18.6712C3.14483 18.8229 3.05957 19.0287 3.05957 19.2434C3.05957 19.458 3.14483 19.6638 3.29658 19.8156C3.44834 19.9673 3.65416 20.0526 3.86878 20.0526H6.20538C7.36495 20.0505 8.50737 19.7724 9.53812 19.2412C10.5689 18.71 11.4583 17.941 12.1328 16.9978L12.2441 16.836C12.3068 16.7497 12.3519 16.6519 12.3767 16.5482C12.4015 16.4445 12.4055 16.3369 12.3886 16.2317C12.3717 16.1264 12.3341 16.0255 12.2781 15.9348C12.222 15.8441 12.1486 15.7653 12.062 15.7031Z" fill="#222222"/>
</g>
<defs>
<clipPath id="clip0_580_6766">
<rect width="25.8947" height="25.8947" fill="white" transform="translate(0.631836 0.631348)"/>
</clipPath>
</defs>
</svg>
