<svg width="24" height="16" viewBox="0 0 24 16" fill="none" xmlns="http://www.w3.org/2000/svg">
<path d="M22 16H2C0.897 16 0 15.103 0 14V2C0 0.897 0.897 0 2 0H22C23.103 0 24 0.897 24 2V14C24 15.103 23.103 16 22 16ZM2 1C1.4485 1 1 1.4485 1 2V14C1 14.5515 1.4485 15 2 15H22C22.5515 15 23 14.5515 23 14V2C23 1.4485 22.5515 1 22 1H2Z" fill="#222222"/>
<path d="M12 10.5955L3.22846 4.91999C2.99646 4.76949 2.92996 4.46049 3.07996 4.22849C3.22996 3.99649 3.53946 3.93049 3.77146 4.07999L12 9.40449L20.2285 4.07999C20.4605 3.93049 20.77 3.99649 20.92 4.22849C21.07 4.46049 21.0035 4.76949 20.7715 4.91999L12 10.5955Z" fill="#222222"/>
<path d="M3.00054 12.9998C2.83904 12.9998 2.68004 12.9218 2.58404 12.7773C2.43054 12.5473 2.49254 12.2373 2.72254 12.0838L7.22254 9.0838C7.45254 8.9303 7.76304 8.9923 7.91604 9.2223C8.06954 9.4523 8.00754 9.7623 7.77754 9.9158L3.27754 12.9158C3.19204 12.9723 3.09554 12.9998 3.00054 12.9998Z" fill="#222222"/>
<path d="M20.9995 12.9998C20.9045 12.9998 20.808 12.9723 20.7225 12.9158L16.2225 9.9158C15.9925 9.7623 15.9305 9.4523 16.084 9.2223C16.237 8.9923 16.547 8.9303 16.7775 9.0838L21.2775 12.0838C21.5075 12.2373 21.5695 12.5473 21.416 12.7773C21.32 12.9218 21.161 12.9998 20.9995 12.9998Z" fill="#222222"/>
</svg>
