<svg width="24" height="24" viewBox="0 0 24 24" fill="none" xmlns="http://www.w3.org/2000/svg">
<path d="M19.6156 13.3675L20.9853 19.9709C21.0596 20.3346 20.7801 20.6716 20.4127 20.6722L15.6034 20.6739C15.3188 22.437 13.7901 23.7379 12 23.7379C10.2099 23.7379 8.68115 22.437 8.39655 20.6739H3.58725C3.19295 20.6739 2.91458 20.2932 3.02485 19.921L4.38436 13.3675V11.0309C4.38436 7.78238 6.46812 4.89045 9.52106 3.8317V0.847928C9.52106 0.524209 9.78384 0.261719 10.1076 0.261719H13.8924C14.2161 0.261719 14.4789 0.524209 14.4789 0.847928V3.8317C17.5318 4.89016 19.6156 7.78238 19.6156 11.0309V13.3675ZM12 10.6831C13.2135 10.6831 14.1971 11.667 14.1971 12.8802C14.1971 14.0938 13.2135 15.0774 12 15.0774C10.7867 15.0774 9.80283 14.0938 9.80283 12.8802C9.80283 11.6667 10.7867 10.6831 12 10.6831ZM12 11.8558C11.4342 11.8558 10.9755 12.3144 10.9755 12.8802C10.9755 13.446 11.4342 13.9047 12 13.9047C12.5658 13.9047 13.0244 13.446 13.0244 12.8802C13.0244 12.3144 12.5658 11.8558 12 11.8558ZM10.6646 7.7203H13.3354C13.6396 7.7203 13.8893 7.95161 13.9188 8.24783C14.1492 8.05932 14.4897 8.07236 14.7045 8.28723L16.593 10.176C16.8079 10.3908 16.8212 10.731 16.6324 10.9615C16.9286 10.9909 17.1602 11.241 17.1602 11.5448V14.2157C17.1602 14.5195 16.9286 14.7695 16.6324 14.799C16.8212 15.0295 16.8079 15.3696 16.593 15.5845L14.7045 17.4733C14.4897 17.6881 14.1492 17.7012 13.9188 17.5127C13.8896 17.8089 13.6396 18.0402 13.3354 18.0402H10.6646C10.3607 18.0402 10.1107 17.8089 10.0812 17.5127C9.85102 17.7012 9.51057 17.6881 9.2957 17.4733L7.40725 15.5845C7.19238 15.3696 7.17906 15.0295 7.36756 14.799C7.07134 14.7695 6.84003 14.5195 6.84003 14.2157V11.5448C6.84003 11.241 7.07134 10.9909 7.36756 10.9615C7.17906 10.731 7.19238 10.3908 7.40725 10.176L9.2957 8.28723C9.51057 8.07236 9.85102 8.05932 10.0812 8.24783C10.1107 7.95161 10.3607 7.7203 10.6646 7.7203ZM12.7492 8.893H11.2511V9.65637C11.2508 10.1714 10.622 10.443 10.2501 10.0711L9.71042 9.53108L8.6511 10.5904L9.19082 11.1301C9.55508 11.4947 9.30223 12.1313 8.77611 12.1313H8.01273V13.6292H8.77611C9.29145 13.6294 9.56273 14.2582 9.19082 14.6304L8.6511 15.1701L9.71042 16.2294L10.2501 15.6894C10.6144 15.3251 11.2511 15.578 11.2511 16.1041V16.8675H12.7492V16.1041C12.7492 15.5888 13.3782 15.3175 13.7501 15.6894L14.2898 16.2294L15.3491 15.1701L14.8094 14.6304C14.4452 14.2658 14.6977 13.6292 15.2238 13.6292H15.9872V12.1313H15.2238C14.7088 12.131 14.4372 11.5023 14.8094 11.1301L15.3491 10.5904L14.2898 9.53108L13.7501 10.0711C13.3858 10.4353 12.7492 10.1825 12.7492 9.65637V8.893ZM2.14866 10.0408C2.31448 10.7911 1.17353 11.0428 1.00799 10.2928C0.0943731 6.20403 2.6915 2.11701 6.77937 1.2034C7.52971 1.03757 7.78114 2.17852 7.03137 2.34407C3.5779 3.11566 1.37706 6.58841 2.14866 10.0408ZM23.0036 10.2395C22.9001 11.0743 21.6104 10.7931 21.8621 9.99115C22.5985 6.56999 20.4249 3.14288 17.0148 2.35455C16.2225 2.24655 16.4385 1.03133 17.2209 1.2034C21.2881 2.11247 23.8838 6.16577 23.0036 10.2395ZM14.4077 20.6739H9.59221C9.86094 21.7817 10.8565 22.5652 12 22.5652C13.1435 22.5652 14.139 21.7817 14.4077 20.6739ZM10.6938 3.52811C11.1184 3.45412 11.5549 3.41529 12 3.41529C12.445 3.41529 12.8816 3.45412 13.3062 3.52811V1.43442H10.6938V3.52811ZM19.6941 19.5012L18.467 13.5847C18.4511 13.5319 18.4429 13.4761 18.4429 13.418V11.0309C18.4429 7.4391 15.4926 4.58799 12 4.58799C8.50738 4.58799 5.55706 7.4391 5.55706 11.0309L5.55536 13.418C5.55536 13.4565 5.55139 13.4956 5.54346 13.5348L4.30584 19.5012C9.43517 19.5012 14.5648 19.5012 19.6941 19.5012Z" fill="#222222"/>
</svg>
