<svg width="24" height="24" viewBox="0 0 24 24" fill="none" xmlns="http://www.w3.org/2000/svg">
<path d="M11.7655 0C5.26706 0 0 5.26711 0 11.7655C0 18.264 5.26706 23.5312 11.7655 23.5312C18.264 23.5312 23.5311 18.2639 23.5311 11.7655C23.5311 5.26711 18.264 0 11.7655 0ZM11.7655 0.980484C17.7125 0.980484 22.5506 5.81864 22.5506 11.7656C22.5506 14.3819 21.6133 16.7832 20.0573 18.6527C18.9821 18.2037 16.4438 17.3228 14.8725 16.8589C14.7385 16.8168 14.7174 16.81 14.7174 16.2523C14.7174 15.7917 14.907 15.3279 15.0918 14.9353C15.2919 14.5087 15.5294 13.7916 15.6146 13.1482C15.853 12.8714 16.1776 12.3256 16.3863 11.2854C16.5692 10.3686 16.484 10.0349 16.3624 9.72178C16.35 9.68873 16.3365 9.6562 16.327 9.62362C16.281 9.40866 16.3442 8.29177 16.5013 7.42523C16.6095 6.83063 16.4735 5.56627 15.6548 4.5203C15.1378 3.85912 14.1487 3.04767 12.342 2.9347L11.351 2.93564C9.57483 3.04772 8.58478 3.85912 8.06775 4.5203C7.24912 5.56631 7.11319 6.83067 7.22137 7.42481C7.37934 8.29177 7.44159 9.40866 7.39659 9.61931C7.38703 9.65616 7.37362 9.68873 7.36022 9.72178C7.23956 10.0349 7.15341 10.3686 7.33725 11.2854C7.545 12.3256 7.86961 12.8715 8.10895 13.1482C8.19323 13.7916 8.4307 14.5087 8.63175 14.9353C8.77823 15.2475 8.84719 15.6721 8.84719 16.2724C8.84719 16.8301 8.82609 16.8369 8.70066 16.8766C7.07583 17.3563 4.48969 18.2908 3.52547 18.7131C1.93894 16.835 0.980484 14.4106 0.980484 11.7656C0.980437 5.81859 5.81859 0.980484 11.7655 0.980484ZM4.23586 19.4773C5.33986 19.0266 7.54111 18.2415 8.98687 17.8144C9.82758 17.5492 9.82758 16.8412 9.82758 16.2724C9.82758 15.8009 9.79505 15.1057 9.51928 14.5178C9.32967 14.1152 9.11325 13.4249 9.06544 12.8844C9.05489 12.758 8.99555 12.6412 8.89978 12.5579C8.76094 12.4363 8.47847 11.991 8.29847 11.093C8.15583 10.382 8.21616 10.2264 8.27456 10.0761C8.29945 10.0119 8.32341 9.94875 8.34258 9.87741C8.46033 9.44705 8.32912 8.0333 8.18648 7.24912C8.12428 6.90825 8.20275 5.93977 8.84044 5.12395C9.41203 4.39294 10.2776 3.9855 11.3816 3.91514L12.3113 3.91416C13.445 3.9855 14.3105 4.39294 14.8831 5.12395C15.5208 5.93977 15.5984 6.90825 15.5361 7.24955C15.3944 8.0333 15.2622 9.447 15.38 9.87689C15.4001 9.9487 15.423 10.0119 15.448 10.0761C15.5064 10.2263 15.5667 10.382 15.425 11.0929C15.2451 11.991 14.9616 12.4363 14.8228 12.5579C14.728 12.6412 14.6686 12.758 14.6571 12.8843C14.6102 13.4248 14.3938 14.1152 14.2042 14.5178C13.9869 14.9798 13.737 15.595 13.737 16.2523C13.737 16.821 13.737 17.5291 14.5863 17.7967C15.9698 18.2055 18.1816 18.9653 19.3498 19.4247C17.3994 21.3559 14.7194 22.5508 11.7655 22.5508C8.83852 22.5508 6.1815 21.377 4.23586 19.4773Z" fill="#222222"/>
</svg>
