<svg width="15" height="14" viewBox="0 0 15 14" fill="none" xmlns="http://www.w3.org/2000/svg">
<path d="M13.3563 1.50599C13.0646 1.20652 12.6327 1.09495 12.2301 1.21239L2.84037 3.94289C2.41553 4.06092 2.11441 4.39974 2.03329 4.83016C1.95043 5.26821 2.23988 5.8243 2.61803 6.05683L5.55399 7.86131C5.85511 8.04628 6.24377 7.99989 6.49295 7.74857L9.85491 4.36568C10.0241 4.18952 10.3043 4.18952 10.4735 4.36568C10.6427 4.53597 10.6427 4.81196 10.4735 4.98812L7.1057 8.37159C6.85593 8.62233 6.80925 9.01282 6.99307 9.31581L8.78698 12.2812C8.99706 12.6335 9.35888 12.8332 9.7557 12.8332C9.80239 12.8332 9.85491 12.8332 9.9016 12.8273C10.3568 12.7686 10.7186 12.4574 10.8528 12.017L13.6365 2.6393C13.759 2.24 13.6481 1.80547 13.3563 1.50599Z" fill="white"/>
</svg>
