<svg width="20" height="20" viewBox="0 0 20 20" fill="none" xmlns="http://www.w3.org/2000/svg">
<g clip-path="url(#clip0_580_7188)">
<path d="M11.25 18.125H8.75C8.58424 18.125 8.42527 18.0592 8.30806 17.9419C8.19085 17.8247 8.125 17.6658 8.125 17.5V16.6C8.1273 16.4289 8.07863 16.2609 7.9852 16.1175C7.89176 15.9741 7.75778 15.8618 7.60029 15.7948C7.44281 15.7278 7.26895 15.7091 7.10084 15.7412C6.93273 15.7733 6.77797 15.8547 6.65625 15.975L6.03125 16.6C5.97315 16.6586 5.90402 16.7051 5.82786 16.7368C5.7517 16.7685 5.67001 16.7849 5.5875 16.7849C5.50499 16.7849 5.4233 16.7685 5.34714 16.7368C5.27098 16.7051 5.20185 16.6586 5.14375 16.6L3.36875 14.8625C3.31017 14.8044 3.26367 14.7353 3.23194 14.6591C3.20021 14.5829 3.18388 14.5013 3.18388 14.4187C3.18388 14.3362 3.20021 14.2546 3.23194 14.1784C3.26367 14.1022 3.31017 14.0331 3.36875 13.975L3.99375 13.35C4.11406 13.2283 4.19545 13.0735 4.22754 12.9054C4.25963 12.7373 4.24099 12.5634 4.17397 12.406C4.10696 12.2485 3.99461 12.1145 3.85122 12.0211C3.70783 11.9276 3.53988 11.879 3.36875 11.8813H2.5C2.33424 11.8813 2.17527 11.8154 2.05806 11.6982C1.94085 11.581 1.875 11.422 1.875 11.2563V8.75C1.875 8.58424 1.94085 8.42527 2.05806 8.30806C2.17527 8.19085 2.33424 8.125 2.5 8.125H3.4C3.57113 8.1273 3.73908 8.07863 3.88247 7.9852C4.02586 7.89176 4.13821 7.75778 4.20522 7.60029C4.27224 7.44281 4.29088 7.26895 4.25879 7.10084C4.2267 6.93273 4.14531 6.77797 4.025 6.65625L3.4 6.03125C3.34142 5.97315 3.29492 5.90402 3.26319 5.82786C3.23146 5.7517 3.21513 5.67001 3.21513 5.5875C3.21513 5.50499 3.23146 5.4233 3.26319 5.34714C3.29492 5.27098 3.34142 5.20185 3.4 5.14375L5.1375 3.36875C5.1956 3.31017 5.26473 3.26367 5.34089 3.23194C5.41705 3.20021 5.49874 3.18388 5.58125 3.18388C5.66376 3.18388 5.74545 3.20021 5.82161 3.23194C5.89777 3.26367 5.9669 3.31017 6.025 3.36875L6.65 3.99375C6.77172 4.11406 6.92648 4.19545 7.09459 4.22754C7.2627 4.25963 7.43656 4.24099 7.59404 4.17397C7.75153 4.10696 7.88551 3.99461 7.97895 3.85122C8.07238 3.70783 8.12105 3.53988 8.11875 3.36875V2.5C8.11875 2.33424 8.1846 2.17527 8.30181 2.05806C8.41902 1.94085 8.57799 1.875 8.74375 1.875H11.2437C11.4095 1.875 11.5685 1.94085 11.6857 2.05806C11.8029 2.17527 11.8687 2.33424 11.8687 2.5V3.4C11.8665 3.57113 11.9151 3.73908 12.0086 3.88247C12.102 4.02586 12.236 4.13821 12.3935 4.20522C12.5509 4.27224 12.7248 4.29088 12.8929 4.25879C13.061 4.2267 13.2158 4.14531 13.3375 4.025L13.9625 3.4C14.0206 3.34142 14.0897 3.29492 14.1659 3.26319C14.2421 3.23146 14.3237 3.21513 14.4062 3.21513C14.4888 3.21513 14.5704 3.23146 14.6466 3.26319C14.7228 3.29492 14.7919 3.34142 14.85 3.4L16.6187 5.16875C16.6773 5.22685 16.7238 5.29598 16.7556 5.37214C16.7873 5.4483 16.8036 5.52999 16.8036 5.6125C16.8036 5.69501 16.7873 5.7767 16.7556 5.85286C16.7238 5.92902 16.6773 5.99815 16.6187 6.05625L15.9937 6.68125C15.8734 6.80297 15.7921 6.95773 15.76 7.12584C15.7279 7.29395 15.7465 7.46781 15.8135 7.62529C15.8805 7.78278 15.9929 7.91676 16.1363 8.0102C16.2797 8.10363 16.4476 8.1523 16.6187 8.15H17.5C17.6658 8.15 17.8247 8.21585 17.9419 8.33306C18.0592 8.45027 18.125 8.60924 18.125 8.775V11.275C18.125 11.4408 18.0592 11.5997 17.9419 11.7169C17.8247 11.8342 17.6658 11.9 17.5 11.9H16.6C16.4289 11.8977 16.2609 11.9464 16.1175 12.0398C15.9741 12.1332 15.8618 12.2672 15.7948 12.4247C15.7278 12.5822 15.7091 12.756 15.7412 12.9242C15.7733 13.0923 15.8547 13.247 15.975 13.3687L16.6 13.9937C16.6586 14.0519 16.7051 14.121 16.7368 14.1971C16.7685 14.2733 16.7849 14.355 16.7849 14.4375C16.7849 14.52 16.7685 14.6017 16.7368 14.6779C16.7051 14.754 16.6586 14.8231 16.6 14.8812L14.8312 16.65C14.7731 16.7086 14.704 16.7551 14.6279 16.7868C14.5517 16.8185 14.47 16.8349 14.3875 16.8349C14.305 16.8349 14.2233 16.8185 14.1471 16.7868C14.071 16.7551 14.0019 16.7086 13.9437 16.65L13.3187 16.025C13.197 15.9047 13.0423 15.8233 12.8742 15.7912C12.706 15.7591 12.5322 15.7778 12.3747 15.8448C12.2172 15.9118 12.0832 16.0241 11.9898 16.1675C11.8964 16.3109 11.8477 16.4789 11.85 16.65V17.5C11.8501 17.6615 11.7877 17.8168 11.6759 17.9333C11.564 18.0499 11.4114 18.1185 11.25 18.125ZM9.375 16.875H10.625V16.6C10.6245 16.1827 10.748 15.7746 10.9798 15.4276C11.2116 15.0805 11.5412 14.8102 11.9269 14.6508C12.3126 14.4914 12.737 14.4502 13.1461 14.5324C13.5553 14.6146 13.9308 14.8165 14.225 15.1125L14.4187 15.3062L15.3062 14.4187L15.1125 14.225C14.8165 13.9308 14.6146 13.5553 14.5324 13.1461C14.4502 12.737 14.4914 12.3126 14.6508 11.9269C14.8102 11.5412 15.0805 11.2116 15.4276 10.9798C15.7746 10.748 16.1827 10.6245 16.6 10.625H16.875V9.375H16.6C16.1827 9.37551 15.7746 9.25204 15.4276 9.02024C15.0805 8.78845 14.8102 8.45878 14.6508 8.07308C14.4914 7.68739 14.4502 7.26304 14.5324 6.85388C14.6146 6.44473 14.8165 6.06922 15.1125 5.775L15.3062 5.58125L14.4187 4.69375L14.225 4.8875C13.9308 5.18347 13.5553 5.38536 13.1461 5.46757C12.737 5.54977 12.3126 5.50857 11.9269 5.3492C11.5412 5.18983 11.2116 4.91947 10.9798 4.57244C10.748 4.2254 10.6245 3.81733 10.625 3.4V3.125H9.375V3.4C9.37551 3.81733 9.25204 4.2254 9.02024 4.57244C8.78845 4.91947 8.45878 5.18983 8.07308 5.3492C7.68739 5.50857 7.26304 5.54977 6.85388 5.46757C6.44473 5.38536 6.06922 5.18347 5.775 4.8875L5.58125 4.69375L4.69375 5.58125L4.8875 5.775C5.18347 6.06922 5.38536 6.44473 5.46757 6.85388C5.54977 7.26304 5.50857 7.68739 5.3492 8.07308C5.18983 8.45878 4.91947 8.78845 4.57244 9.02024C4.2254 9.25204 3.81733 9.37551 3.4 9.375H3.125V10.625H3.4C3.81733 10.6245 4.2254 10.748 4.57244 10.9798C4.91947 11.2116 5.18983 11.5412 5.3492 11.9269C5.50857 12.3126 5.54977 12.737 5.46757 13.1461C5.38536 13.5553 5.18347 13.9308 4.8875 14.225L4.69375 14.4187L5.58125 15.3062L5.775 15.1125C6.06922 14.8165 6.44473 14.6146 6.85388 14.5324C7.26304 14.4502 7.68739 14.4914 8.07308 14.6508C8.45878 14.8102 8.78845 15.0805 9.02024 15.4276C9.25204 15.7746 9.37551 16.1827 9.375 16.6V16.875Z" fill="#222222"/>
<path d="M10 13.125C9.38194 13.125 8.77775 12.9417 8.26384 12.5983C7.74994 12.255 7.3494 11.7669 7.11288 11.1959C6.87635 10.6249 6.81447 9.99654 6.93505 9.39034C7.05563 8.78415 7.35325 8.22733 7.79029 7.79029C8.22733 7.35325 8.78415 7.05563 9.39034 6.93505C9.99654 6.81447 10.6249 6.87635 11.1959 7.11288C11.7669 7.3494 12.255 7.74994 12.5983 8.26384C12.9417 8.77775 13.125 9.38194 13.125 10C13.125 10.8288 12.7958 11.6237 12.2097 12.2097C11.6237 12.7958 10.8288 13.125 10 13.125ZM10 8.125C9.62916 8.125 9.26665 8.23497 8.95831 8.441C8.64997 8.64702 8.40964 8.93986 8.26773 9.28247C8.12581 9.62508 8.08868 10.0021 8.16103 10.3658C8.23338 10.7295 8.41195 11.0636 8.67418 11.3258C8.9364 11.5881 9.27049 11.7666 9.63421 11.839C9.99792 11.9113 10.3749 11.8742 10.7175 11.7323C11.0601 11.5904 11.353 11.35 11.559 11.0417C11.765 10.7334 11.875 10.3708 11.875 10C11.875 9.50272 11.6775 9.02581 11.3258 8.67418C10.9742 8.32255 10.4973 8.125 10 8.125Z" fill="#222222"/>
</g>
<defs>
<clipPath id="clip0_580_7188">
<rect width="20" height="20" fill="white"/>
</clipPath>
</defs>
</svg>
