<svg width="18" height="21" viewBox="0 0 18 21" fill="none" xmlns="http://www.w3.org/2000/svg">
<path d="M6.82473 11.011C6.82473 11.365 7.11174 11.652 7.46568 11.652C7.81963 11.652 8.10663 11.365 8.10663 11.011V10.6778C9.44693 10.296 9.64349 9.40582 9.65488 8.97638C9.67767 8.08262 8.98829 7.46944 7.60598 7.15466C6.64669 6.93674 6.55767 6.70244 6.56408 6.61199C6.59898 6.09496 7.63874 6.00095 8.12088 6.01449C8.12088 6.36843 8.40788 6.65544 8.76183 6.65544C9.11577 6.65544 9.40278 6.36843 9.40278 6.01449C9.40278 5.66054 9.25678 5.31656 9.00183 5.07087C8.75827 4.83585 8.45061 4.70552 8.10663 4.70837V4.54671C8.10663 4.19276 7.81963 3.90576 7.46568 3.90576C7.11174 3.90576 6.82473 4.19276 6.82473 4.54671V4.88214C5.58984 5.23324 5.31921 6.01733 5.28503 6.5244C5.22165 7.45021 5.90746 8.08262 7.32182 8.4038C8.35162 8.63811 8.37441 8.91158 8.37369 8.9422C8.35945 9.49057 7.09749 9.56392 6.8169 9.56392H6.81619C6.80764 9.55609 6.80764 9.54897 6.80764 9.54469C6.80764 9.19075 6.52064 8.90446 6.16669 8.90446C5.81274 8.90446 5.52574 9.19146 5.52574 9.54541C5.52574 9.90291 5.66746 10.2376 5.92527 10.4862C6.16598 10.7191 6.49144 10.8494 6.82545 10.8537V11.011H6.82473Z" fill="#222222"/>
<path d="M4.97875 13.4366C2.73329 12.4531 1.2819 10.2318 1.2819 7.77771C1.2819 4.36928 4.05792 1.59611 7.47062 1.59611C10.6554 1.59611 13.299 3.98186 13.6202 7.1446C13.6558 7.49641 13.9691 7.75065 14.3224 7.71789C14.6749 7.68228 14.9313 7.3675 14.8957 7.01569C14.5075 3.19492 11.3156 0.314209 7.47062 0.314209C3.35145 0.314209 0 3.6621 0 7.77771C0 10.741 1.75193 13.4231 4.46457 14.6102C4.54789 14.6473 4.63549 14.6644 4.72095 14.6644C4.96807 14.6644 5.20309 14.5205 5.30849 14.2798C5.45092 13.9565 5.3035 13.5783 4.97875 13.4366Z" fill="#222222"/>
<path d="M17.6618 13.9471C17.3321 13.4478 16.8015 13.1202 16.2076 13.0469L13.8175 12.7542V10.4033C13.8175 9.40487 13.005 8.59229 12.0072 8.59229C11.0095 8.59229 10.1969 9.40487 10.1969 10.4033V13.858L9.536 13.4493C8.75902 12.9671 7.75202 13.1509 7.19226 13.8744C6.67309 14.5474 6.703 15.4989 7.2649 16.137L10.2382 19.5134C10.5736 19.8937 11.0572 20.1123 11.5642 20.1123H15.3017C16.0851 20.1123 16.783 19.5867 17.0002 18.8339L17.9203 15.637C18.0856 15.0616 17.9915 14.4456 17.6618 13.9471ZM16.6883 15.2817L15.7682 18.4786C15.7083 18.6858 15.5168 18.8304 15.3017 18.8304H11.5642C11.4247 18.8304 11.2922 18.7706 11.1996 18.6659L8.22632 15.2902C8.06893 15.1122 8.0611 14.8458 8.20638 14.6585C8.30395 14.5325 8.44994 14.4648 8.59879 14.4648C8.68781 14.4648 8.77896 14.489 8.86015 14.5396L10.4988 15.5544C10.6968 15.6769 10.9454 15.6833 11.1483 15.5694C11.3513 15.4561 11.4774 15.2425 11.4774 15.0096V10.404C11.4774 10.112 11.7145 9.8749 12.0065 9.8749C12.2985 9.8749 12.5356 10.112 12.5356 10.404V13.3218C12.5356 13.6458 12.7771 13.9186 13.099 13.9585L16.0516 14.3202C16.2752 14.3473 16.4675 14.4662 16.5921 14.655C16.7168 14.8423 16.751 15.0652 16.6883 15.2817Z" fill="#222222"/>
</svg>
