<svg width="90" height="90" viewBox="0 0 90 90" fill="none" xmlns="http://www.w3.org/2000/svg">
<path fill-rule="evenodd" clip-rule="evenodd" d="M8.16201 72.0918C21.495 72.0978 34.823 72.0978 48.162 72.0918C48.459 74.6188 49.73 76.8378 51.584 78.3848H15.12C11.432 78.3848 8.77101 75.5918 8.16201 72.0918ZM74.902 11.6488C78.59 11.6488 81.256 14.4408 81.865 17.9408H67.568C68.109 14.3588 71.156 11.6488 74.902 11.6488ZM25.413 11.6488H68.678C66.584 13.4048 65.215 16.0288 65.215 18.9618L65.209 70.9568C65.209 75.0778 61.934 78.3628 57.818 78.3848C57.812 78.3848 57.808 78.3848 57.802 78.3848C57.796 78.3848 57.792 78.3848 57.781 78.3848C53.677 78.3848 50.406 75.1288 50.359 71.0408C50.402 70.4408 50.027 69.8108 49.218 69.8278H17.99V19.0778C17.99 14.9468 21.276 11.6488 25.413 11.6488ZM25.413 9.38379C20.063 9.38379 15.72 13.7278 15.72 19.0768V69.8268H6.55701C5.77601 69.8268 5.43201 70.4248 5.43201 70.9558C5.43201 76.3058 9.77101 80.6488 15.12 80.6488H57.782C63.741 80.6488 67.335 75.5448 67.475 70.9558V20.2058H83.465C84.09 20.2058 84.6 19.7008 84.6 19.0768C84.6 13.7268 80.256 9.38379 74.903 9.38379H25.413Z" fill="black"/>
<path d="M75.24 33.7529H78.496L78.547 74.6869L76.949 76.8319L75.293 74.6389L75.24 33.7529ZM73.996 31.4889C73.412 31.5459 72.975 32.0349 72.975 32.6139L73.028 75.0219C73.028 75.2639 73.106 75.5039 73.257 75.7019L76.038 79.4009C76.497 80.0099 77.403 80.0049 77.856 79.3949L80.594 75.7349C80.74 75.5359 80.819 75.3029 80.813 75.0569L80.762 32.6139C80.762 31.9889 80.25 31.4829 79.625 31.4889H74.105C74.068 31.4829 74.031 31.4829 73.996 31.4889Z" fill="black"/>
<path d="M74.318 27.3838C72.808 27.3838 72.922 29.6488 74.437 29.6488H79.355C80.921 29.6488 80.921 27.3838 79.355 27.3838H74.318Z" fill="black"/>
<path d="M28.557 25.7959C26.036 25.7959 23.964 27.8539 23.964 30.3739V37.2239C23.964 39.7399 26.036 41.7909 28.557 41.7909H35.246C37.766 41.7909 39.844 39.7389 39.844 37.2239V35.3689C39.844 33.8549 37.574 33.8549 37.574 35.3689V37.2239C37.574 38.5159 36.556 39.5269 35.246 39.5269H28.557C27.245 39.5269 26.235 38.5159 26.235 37.2239V30.3739C26.235 29.0779 27.246 28.0669 28.557 28.0669H34.819C36.335 28.0669 36.335 25.7959 34.819 25.7959H28.557Z" fill="black"/>
<path d="M40.526 26.7332C40.229 26.7382 39.948 26.8622 39.741 27.0712L32.501 34.2852L30.235 32.0342C29.797 31.5552 29.052 31.5342 28.594 31.9932C28.135 32.4512 28.151 33.1962 28.631 33.6352L31.703 36.6922C32.144 37.1292 32.855 37.1292 33.297 36.6922L41.344 28.6762C42.075 27.9522 41.547 26.7122 40.526 26.7332Z" fill="black"/>
<path d="M44.459 39.5258C43.818 39.4998 43.281 40.0148 43.281 40.6608C43.281 41.3028 43.818 41.8158 44.459 41.7908H58.078C58.719 41.8158 59.256 41.3028 59.256 40.6608C59.256 40.0148 58.719 39.4998 58.078 39.5258H44.459Z" fill="black"/>
<path d="M48.453 25.7959C47.824 25.7959 47.312 26.3059 47.312 26.9309C47.312 27.5619 47.824 28.0669 48.453 28.0669H58.078C59.594 28.0669 59.594 25.7959 58.078 25.7959H48.453Z" fill="black"/>
<path d="M44.459 34.9469C43.818 34.9259 43.281 35.4369 43.281 36.0819C43.281 36.7239 43.818 37.2389 44.459 37.2129H58.078C58.719 37.2389 59.256 36.7239 59.256 36.0819C59.256 35.4369 58.719 34.9259 58.078 34.9469H44.459Z" fill="black"/>
<path d="M44.459 30.3739C43.818 30.3489 43.281 30.8629 43.281 31.5049C43.281 32.1499 43.818 32.6659 44.459 32.6399H58.078C58.719 32.6659 59.256 32.1499 59.256 31.5049C59.256 30.8629 58.719 30.3489 58.078 30.3739H44.459Z" fill="black"/>
<path d="M44.459 60.5879C42.944 60.5879 42.944 62.8589 44.459 62.8589H58.078C59.594 62.8589 59.594 60.5879 58.078 60.5879H44.459Z" fill="black"/>
<path d="M48.453 46.854C46.937 46.854 46.937 49.129 48.453 49.129H58.078C59.594 49.129 59.594 46.854 58.078 46.854H48.453Z" fill="black"/>
<path d="M44.459 56.0098C43.828 56.0098 43.322 56.5218 43.322 57.1448C43.322 57.7758 43.828 58.2858 44.459 58.2858H58.078C59.594 58.2858 59.594 56.0108 58.078 56.0108H44.459V56.0098Z" fill="black"/>
<path d="M44.459 51.4321C43.828 51.4321 43.322 51.9421 43.322 52.5731C43.322 53.1981 43.828 53.7081 44.459 53.7081H58.078C59.594 53.7081 59.594 51.4331 58.078 51.4331L44.459 51.4321Z" fill="black"/>
<path d="M28.557 46.8628C26.036 46.8628 23.964 48.9198 23.964 51.4408V58.2908C23.964 60.8068 26.036 62.8588 28.557 62.8588H35.246C37.766 62.8588 39.844 60.8058 39.844 58.2908V56.4368C39.844 54.9188 37.574 54.9188 37.574 56.4368V58.2908C37.574 59.5818 36.556 60.5918 35.246 60.5918H28.557C27.245 60.5918 26.235 59.5818 26.235 58.2908V51.4408C26.235 50.1438 27.246 49.1338 28.557 49.1338H34.819C36.335 49.1338 36.335 46.8628 34.819 46.8628H28.557Z" fill="black"/>
<path d="M40.526 47.803C40.229 47.807 39.948 47.932 39.741 48.139L32.501 55.354L30.235 53.104C29.797 52.625 29.052 52.604 28.594 53.063C28.135 53.522 28.151 54.264 28.631 54.702L31.703 57.761C32.144 58.199 32.855 58.199 33.297 57.761L41.344 49.745C42.075 49.021 41.547 47.781 40.526 47.803Z" fill="black"/>
</svg>
